<svg xmlns="http://www.w3.org/2000/svg" viewBox="0 0 2048 2048">
  <defs>
    <style>
      .cls-1 {
        fill: #abd1b5;
      }

      .cls-2 {
        fill: #edf4ed;
      }

      .cls-3 {
        fill: #79b791;
      }

      .cls-4 {
        fill: #301014;
      }
    </style>
  </defs>
  <title>svgTyl</title>
  <g id="Layer_5" data-name="Layer 5">
    <rect class="cls-1" width="2048" height="2048"/>
    <g>
      <g id="Right">
        <rect id="accent" class="cls-2" x="512.11" y="1140.46" width="1045.91" height="22.13"/>
        <g id="Right-2" data-name="Right">
          <rect id="rightTower" class="cls-2" x="1897.14" y="917.65" width="115.86" height="222.81"/>
          <polygon id="rightMiddle" class="cls-2" points="1748.77 1140.99 1888.23 1140.99 1888.23 950.68 1821.12 972.7 1748.77 972.7 1748.77 1140.99"/>
          <polygon id="rightSmaller" class="cls-2" points="1673.28 1140.99 1740.91 1140.99 1740.91 958.02 1673.28 941.77 1673.28 1140.99"/>
          <polygon id="middleRight" class="cls-2" points="1587.04 884.89 1667.25 935.22 1667.25 1140.73 1587.04 1140.73 1587.04 884.89"/>
        </g>
        <rect id="rightTower-2" data-name="rightTower" class="cls-3" x="1897.14" y="939.78" width="115.86" height="222.81"/>
        <polygon id="rightMiddle-2" data-name="rightMiddle" class="cls-3" points="1748.77 1163.11 1888.23 1163.11 1888.23 972.81 1821.12 994.83 1748.77 994.83 1748.77 1163.11"/>
        <polygon id="rightSmaller-2" data-name="rightSmaller" class="cls-3" points="1673.28 1163.11 1740.91 1163.11 1740.91 980.15 1673.28 963.89 1673.28 1163.11"/>
        <polygon id="middleRight-2" data-name="middleRight" class="cls-3" points="1587.04 907.01 1667.25 957.34 1667.25 1162.85 1587.04 1162.85 1587.04 907.01"/>
      </g>
      <g id="Left">
        <g id="Left-2" data-name="Left">
          <polygon id="middleLeft" class="cls-2" points="460.96 884.89 380.75 935.22 380.75 1140.73 460.96 1140.73 460.96 884.89"/>
          <polygon id="leftSmall" class="cls-2" points="374.72 1140.99 307.09 1140.99 307.09 958.02 374.72 941.77 374.72 1140.99"/>
          <polygon id="leftMiddle" class="cls-2" points="299.23 1140.99 159.77 1140.99 159.77 950.68 226.88 972.7 299.23 972.7 299.23 1140.99"/>
          <rect id="leftTower" class="cls-2" x="35" y="917.65" width="115.86" height="222.81"/>
        </g>
        <polygon id="middleLeft-2" data-name="middleLeft" class="cls-3" points="460.96 907.01 380.75 957.34 380.75 1162.85 460.96 1162.85 460.96 907.01"/>
        <polygon id="leftSmall-2" data-name="leftSmall" class="cls-3" points="374.72 1163.11 307.09 1163.11 307.09 980.15 374.72 963.89 374.72 1163.11"/>
        <polygon id="leftMiddle-2" data-name="leftMiddle" class="cls-3" points="299.23 1163.11 159.77 1163.11 159.77 972.81 226.88 994.83 299.23 994.83 299.23 1163.11"/>
        <rect id="leftTower-2" data-name="leftTower" class="cls-3" x="35" y="939.78" width="115.86" height="222.81"/>
      </g>
      <g id="rolnik">
        <path class="cls-4" d="M572.17,1082.57q0,7.85.06,14c0,4.13.11,7.9.2,11.29q.12,4.18,3,5.09l13.58,4.44.39,6.53q-14.49-.39-35.9-.39-22.86,0-40.74.39l-.65-6.53,17.49-4.83a4.34,4.34,0,0,0,3.53-4c.08-3.48.15-7.37.19-11.68s.07-9.07.07-14.3v-104q0-6.53-.07-11.88c0-3.57-.11-6.83-.19-9.8a4.22,4.22,0,0,0-3.13-4.3l-17.5-5.1-.39-6.65q18.27.53,37.47.52,4,0,10-.2l14.62-.45q7.85-.27,13.13-.4c3.52-.08,6.28-.13,8.29-.13q33.54,0,50.33,11.23t16.77,32.77q0,19.46-10.25,31.4t-30.09,18.35q11,16.18,16.91,26.24t11.94,19.78q6,9.72,10.91,17.17a75.63,75.63,0,0,0,9.2,11.75q2.36,2,4.5,3.39a29.57,29.57,0,0,0,4.51,2.48,32.71,32.71,0,0,0,5,1.76q2.67.72,5.94,1.37l.52,6.66a208.48,208.48,0,0,1-29.25,1.83q-13,0-18.28-1.7a30.11,30.11,0,0,1-9.26-4.83,51.4,51.4,0,0,1-11-12.27q-5-7.58-10.64-17.1t-11.55-20.24q-5.94-10.71-12.47-21.15c-1.31-2-2.37-3.66-3.2-5a11.56,11.56,0,0,0-2.48-2.94,8.86,8.86,0,0,0-2.61-1.44,13.78,13.78,0,0,0-3.46-.58l-5.48-.13Zm0-55q6.92.39,12.53.39,18.54,0,27.16-9.34t8.61-29.17q0-19.2-8.29-28t-25.78-8.81c-2,0-4.16.08-6.47.26s-4.89.43-7.76.78Z"/>
        <path class="cls-4" d="M890.34,1028.26q0,45.18-26.64,72.66t-74.15,27.48q-45.43,0-70.24-25.39t-24.81-68.74q0-45.18,26.76-71.48t74-26.31q45.44,0,70.24,24.61T890.34,1028.26Zm-152,1.7q0,41.77,14.1,63.91T793.86,1116q26.88,0,39.75-20.11t12.86-63.19q0-40.47-13.58-62.21t-42-21.74q-27.54,0-40,20.17T738.37,1030Z"/>
        <path class="cls-4" d="M974.94,978v103.27q0,14.36.26,28.46h51l17.89-37.08,8-1.17-3.26,51.57-.92.91q-32.25-.39-63.06-.39H952.48q-19.46,0-36,.39l-.65-6.53L932,1112.6a4.33,4.33,0,0,0,3.52-4c.09-3.48.15-7.37.2-11.68s.06-9.07.06-14.3v-104q0-6.53-.06-11.88c-.05-3.57-.11-6.83-.2-9.8a4.22,4.22,0,0,0-3.13-4.3l-16.19-5.1-.39-6.65q16.85.53,38.9.52,22.72,0,39.43-.52l.66,6.65-16.19,4.84a4.07,4.07,0,0,0-3.4,3.91q-.13,4.71-.19,13.38T974.94,978Z"/>
        <path class="cls-4" d="M1104.06,1108q.14,3.79,3.27,4.57l16.71,4.57.39,6.79q-17.62-.39-29-.39t-29.38.39l-.65-6.53,17.49-4.83c2.27-.69,3.44-2,3.53-4q.25-10.58.26-26v-104q0-13-.26-21.68a4.22,4.22,0,0,0-3.14-4.3l-17.49-5.1-.39-6.65q18.27.53,28.07.52,12.79,0,24.28-.52l86.82,108.75q5.22,6.54,10.71,13.84-.27-9-.26-17.36V978q0-12.68-.26-21.81-.13-3-3.4-3.91l-16.71-4.57-.39-6.92q18,.53,29.25.52,11.48,0,29.11-.52l.65,6.65-17.75,5.1a4.22,4.22,0,0,0-3.14,4.3q-.39,8.63-.39,21.68v145l-15,1.43L1114.12,996.14q-4.57-5.86-10.58-14,.26,9.68.26,17.76v82.64Q1103.8,1098,1104.06,1108Z"/>
        <path class="cls-4" d="M1331.24,1082.57q0,7.85.06,14.23t.2,11.49q.12,3.4,4.44,4.57l16.06,4.57.39,6.53q-18.15-.39-40.22-.39-22.85,0-40.73.39l-.65-6.53,17.49-4.83a4.34,4.34,0,0,0,3.53-4c.08-3.48.15-7.37.19-11.68s.07-9.07.07-14.3v-104q0-6.53-.07-11.88c0-3.57-.11-6.83-.19-9.8a4.22,4.22,0,0,0-3.14-4.3l-17.49-5.1-.39-6.65q18.14.53,40.21.52,22.71,0,40.73-.52l.66,6.65-17.5,4.84a4.07,4.07,0,0,0-3.39,3.91q-.13,4.71-.2,10.12t-.06,11.69Z"/>
        <path class="cls-4" d="M1435.68,978v104.57q0,7.85.07,14.23c0,4.27.11,8.1.19,11.49a4.55,4.55,0,0,0,3.4,4.57l15.14,4.57.4,6.53q-16.2-.39-38.26-.39-22.84,0-40.73.39l-.66-6.53,17.5-4.83c2.26-.69,3.44-2,3.52-4q.13-5.22.2-11.68t.07-14.3v-104c0-4.35,0-8.31-.07-11.88s-.11-6.83-.2-9.8a4.21,4.21,0,0,0-3.13-4.3l-17.49-5.1-.4-6.65q18.15.53,40.22.52,22.58,0,38.64-.52l.79,6.65-15.54,4.44a4.31,4.31,0,0,0-3.4,4c-.08,3.22-.15,6.66-.19,10.32S1435.68,973.82,1435.68,978Zm3,54.31,53.52-58.88q6.4-6.93,10.06-11.69c2.43-3.18,3.65-5.72,3.65-7.64q0-2.48-3.52-3.52L1491,947.71l-.39-6.92q13.83.53,30.29.52,16.18,0,30.81-.52l.65,6.65-14.75,4a29.21,29.21,0,0,0-11,6q-4.56,4.05-9.66,9.53l-44.78,50,57.45,84.47a37.26,37.26,0,0,0,7.44,8.3,24.1,24.1,0,0,0,7.83,3.72l12.67,3.91.39,6.53q-14.49-.39-29.9-.39-14.37,0-30.94.26-3.92-8.61-21.28-35Z"/>
      </g>
    </g>
  </g>
</svg>
